Patient4_TMGait_0pt5_02_right_10_GRF.mot
version=1
nRows=78
nColumns=19
inDegrees=no
endheader
time	F1x	F1y	F1z	M1x	M1y	M1z	F2x	F2y	F2z	M2x	M2y	M2z	EC1x	EC1y	EC1z	EC2x	EC2y	EC2z
13.09	3.2259	756.5803	46.7757	-275.0806	-35.6231	604.2	-1.899	12.0845	-4.3974	5.1436	-1.027	20.3229	-0.0592	0.0182	-0.0073	-0.0462	0.0165	0.9585
13.1032	7.5803	750.9445	49.0214	-273.8892	-35.2835	598.8767	-1.3999	9.0016	-2.974	3.8218	-0.64072	14.4157	-0.0592	0.0182	-0.0073	-0.0462	0.0165	0.9585
13.1164	11.6571	746.1497	50.753	-272.8768	-34.6126	593.5008	-0.9928	6.4487	-1.7695	2.7163	-0.30738	9.4587	-0.0592	0.0182	-0.0073	-0.0462	0.0165	0.9585
13.1296	15.2195	743.0031	51.8761	-272.2843	-33.6571	588.7312	-0.69391	4.5573	-0.85634	1.8904	-0.044514	5.7228	-0.0592	0.0182	-0.0073	-0.0462	0.0165	0.9585
13.1429	18.1949	742.0092	52.4641	-272.2872	-32.5201	585.0803	-0.50827	3.3014	-0.23043	1.3385	0.14951	3.1905	-0.0592	0.0182	-0.0073	-0.0462	0.0165	0.9585
13.1561	20.6404	743.3141	52.6849	-272.9551	-31.3188	582.803	-0.42556	2.5608	0.15059	1.0129	0.28592	1.675	-0.0592	0.0182	-0.0073	-0.0462	0.0165	0.9585
13.1693	22.6723	746.7498	52.7268	-274.2508	-30.1537	581.9116	-0.41801	2.1753	0.34769	0.84549	0.37479	0.90355	-0.0592	0.0182	-0.0073	-0.0462	0.0165	0.9585
13.1825	24.4282	751.8687	52.7704	-276.0324	-29.1063	582.1883	-0.47871	1.9742	0.42283	0.7611	0.42933	0.59322	-0.0592	0.0182	-0.0073	-0.0462	0.0165	0.9585
13.1957	26.0286	758.033	52.949	-278.0819	-28.2289	583.2561	-0.58673	1.7723	0.42877	0.68177	0.4546	0.45638	-0.0592	0.0182	-0.0073	-0.0462	0.0165	0.9585
13.2089	27.5358	764.493	53.336	-280.1348	-27.5495	584.6494	-0.73384	1.4067	0.40513	0.53765	0.45743	0.26203	-0.0592	0.0182	-0.0073	-0.0462	0.0165	0.9585
13.2221	28.9716	770.4474	53.9583	-281.9063	-27.0729	585.8411	-0.88927	0.721	0.37742	0.26487	0.43822	-0.2018	-0.0592	0.0182	-0.0073	-0.0462	0.0165	0.9585
13.2354	30.3122	775.1375	54.7878	-283.1267	-26.7829	586.3271	-1.0224	-0.41246	0.36533	-0.18967	0.3882	-1.0961	-0.0592	0.0182	-0.0073	-0.0462	0.0165	0.9585
13.2486	31.5293	777.8709	55.7594	-283.558	-26.6469	585.6286	-1.0895	-2.0542	0.37928	-0.85305	0.29581	-2.5052	-0.0592	0.0182	-0.0073	-0.0462	0.0165	0.9585
13.2618	32.599	778.101	56.7744	-283.0189	-26.6096	583.3693	-1.0137	-4.169	0.42489	-1.7121	0.13807	-4.4132	-0.0592	0.0182	-0.0073	-0.0462	0.0165	0.9585
13.275	33.509	775.507	57.7363	-281.4089	-26.6156	579.311	-0.70465	-6.5571	0.49112	-2.6853	-0.10361	-6.6271	-0.0592	0.0182	-0.0073	-0.0462	0.0165	0.9585
13.2882	34.2841	770.0493	58.5794	-278.7275	-26.6212	573.4093	-0.037442	-8.7852	0.55567	-3.5939	-0.45141	-8.7325	-0.0592	0.0182	-0.0073	-0.0462	0.0165	0.9585
13.3014	34.9692	762.0004	59.289	-275.0819	-26.614	565.8458	1.1059	-10.0747	0.57825	-4.1228	-0.91894	-9.9796	-0.0592	0.0182	-0.0073	-0.0462	0.0165	0.9585
13.3146	35.6421	751.8927	59.8896	-270.6708	-26.5981	556.9722	2.8326	-9.2465	0.50957	-3.795	-1.5065	-9.2538	-0.0592	0.0182	-0.0073	-0.0462	0.0165	0.9585
13.3279	36.3845	740.4126	60.4044	-265.7487	-26.5647	547.2529	5.1812	-4.6742	0.28496	-1.9533	-2.172	-5.0051	-0.0592	0.0182	-0.0073	-0.0462	0.0165	0.9585
13.3411	37.3077	728.2192	60.8166	-260.5648	-26.4649	537.1068	8.0692	5.6781	-0.16598	2.2253	-2.8159	4.7109	-0.0592	0.0182	-0.0073	-0.0462	0.0165	0.9585
13.3543	38.4979	715.7132	61.0511	-255.2782	-26.2085	526.7757	11.1986	24.0675	-0.90974	9.6533	-3.2514	22.0511	-0.0592	0.0182	-0.0073	-0.0462	0.0165	0.9585
13.3675	40.0081	702.799	60.9856	-249.8745	-25.6835	516.1573	13.946	52.5736	-1.988	21.1698	-3.185	49.0156	-0.0592	0.0182	-0.0073	-0.0462	0.0165	0.9585
13.3807	41.8065	688.743	60.444	-244.1165	-24.7684	504.7165	15.2901	92.4245	-3.4086	37.2716	-2.1937	86.8022	-0.0592	0.0182	-0.0073	-0.0462	0.0165	0.9585
13.3939	43.7607	672.2345	59.2192	-237.5658	-23.3535	491.532	13.8773	143.1059	-5.087	57.7509	0.1858	134.9814	-0.0592	0.0182	-0.0073	-0.0462	0.0165	0.9585
13.4071	45.6749	651.6707	57.1137	-229.6849	-21.3607	475.482	8.5035	201.3735	-6.8734	81.2977	4.2764	190.5294	-0.0592	0.0182	-0.0073	-0.0462	0.0165	0.9585
13.4204	47.2815	625.6055	54.0173	-219.9944	-18.803	455.5664	-0.23871	261.5273	-8.8842	105.5759	9.9437	248.0853	-0.0592	0.0182	-0.0073	-0.0462	0.0165	0.9585
13.4336	48.3315	593.1858	49.9855	-208.2198	-15.8061	431.1797	-10.1102	317.2156	-11.4627	127.9701	16.5888	301.506	-0.0592	0.0182	-0.0073	-0.0462	0.0165	0.9585
13.4468	48.562	554.3075	45.3084	-194.3281	-12.6595	402.2659	-19.2177	364.024	-14.5003	146.6737	23.3092	346.4048	-0.0592	0.0182	-0.0073	-0.0462	0.0165	0.9585
13.46	47.7559	509.509	40.399	-178.4884	-9.721	369.2233	-26.6324	400.9983	-17.7615	161.295	29.4767	381.7949	-0.0592	0.0182	-0.0073	-0.0462	0.0165	0.9585
13.4732	45.7946	459.8544	35.6137	-161.0377	-7.2722	332.8369	-32.0765	429.8216	-20.7952	172.541	34.5439	409.2551	-0.0592	0.0182	-0.0073	-0.0462	0.0165	0.9585
13.4864	42.6621	406.7606	31.1189	-142.4361	-5.4299	294.1423	-35.7857	453.5686	-23.4325	181.6781	38.4452	431.7133	-0.0592	0.0182	-0.0073	-0.0462	0.0165	0.9585
13.4996	38.4088	351.8561	26.882	-123.227	-4.153	254.3096	-38.0857	475.818	-25.5923	190.1733	41.257	452.4731	-0.0592	0.0182	-0.0073	-0.0462	0.0165	0.9585
13.5129	33.1157	296.8957	22.8223	-104.0034	-3.3627	214.5981	-39.3946	500.0078	-27.5504	199.4034	43.4244	474.7121	-0.0592	0.0182	-0.0073	-0.0462	0.0165	0.9585
13.5261	26.9442	243.6859	18.8975	-85.3824	-2.9753	176.2749	-40.1645	528.5737	-29.6326	210.3253	45.4489	500.6766	-0.0592	0.0182	-0.0073	-0.0462	0.0165	0.9585
13.5393	20.1736	194.0086	15.1725	-67.9781	-2.9395	140.5923	-40.8504	562.3301	-32.2875	223.2355	47.9371	531.1305	-0.0592	0.0182	-0.0073	-0.0462	0.0165	0.9585
13.5525	13.2621	149.4366	11.7577	-52.3429	-3.1649	108.6278	-41.8548	600.4968	-35.8196	237.792	51.3296	565.3791	-0.0592	0.0182	-0.0073	-0.0462	0.0165	0.9585
13.5657	6.7536	111.0503	8.7901	-38.8664	-3.5457	81.1054	-43.3634	641.1633	-40.2502	253.2259	55.7226	601.6489	-0.0592	0.0182	-0.0073	-0.0462	0.0165	0.9585
13.5789	1.1629	79.2767	6.3337	-27.7114	-3.9296	58.2858	-45.3759	681.944	-45.2875	268.6017	60.8437	637.7479	-0.0592	0.0182	-0.0073	-0.0462	0.0165	0.9585
13.5921	-3.1545	53.9435	4.4174	-18.8247	-4.2055	40.0293	-47.6849	720.3438	-50.476	282.9669	66.1913	671.3663	-0.0592	0.0182	-0.0073	-0.0462	0.0165	0.9585
13.6054	-5.9919	34.4669	2.9737	-12.0041	-4.2512	25.9273	-50.0143	754.1169	-55.3313	295.4761	71.2106	700.4582	-0.0592	0.0182	-0.0073	-0.0462	0.0165	0.9585
13.6186	-7.2728	20.0451	1.909	-6.9668	-3.9867	15.4125	-52.0591	781.4353	-59.4443	305.4556	75.4099	723.3769	-0.0592	0.0182	-0.0073	-0.0462	0.0165	0.9585
13.6318	-7.1283	9.8455	1.1109	-3.4157	-3.3897	7.9118	-53.5722	801.0502	-62.5636	312.4546	78.4648	739.0251	-0.0592	0.0182	-0.0073	-0.0462	0.0165	0.9585
13.645	-5.9949	3.1273	0.52323	-1.0849	-2.5809	2.9024	-54.383	812.4185	-64.5926	316.2881	80.2209	746.9711	-0.0592	0.0182	-0.0073	-0.0462	0.0165	0.9585
13.6582	-4.4772	-0.78094	0.12157	0.26762	-1.7546	-0.05873	-54.3944	815.7352	-65.58	317.0482	80.6912	747.4517	-0.0592	0.0182	-0.0073	-0.0462	0.0165	0.9585
13.6714	-2.964	-2.6247	-0.11774	0.90477	-1.0366	-1.4914	-53.6013	811.9394	-65.6281	315.1127	79.9749	741.3663	-0.0592	0.0182	-0.0073	-0.0462	0.0165	0.9585
13.6846	-1.663	-3.098	-0.23897	1.0686	-0.47276	-1.8955	-52.0225	802.611	-64.8822	311.1072	78.2283	730.1409	-0.0592	0.0182	-0.0073	-0.0462	0.0165	0.9585
13.6979	-0.66286	-2.7541	-0.2747	0.95271	-0.076275	-1.6722	-49.7315	789.7203	-63.4883	305.8078	75.6258	715.538	-0.0592	0.0182	-0.0073	-0.0462	0.0165	0.9585
13.7111	0.044543	-2.0196	-0.25566	0.70298	0.17293	-1.1506	-46.8389	775.2507	-61.6187	299.9926	72.3781	699.3117	-0.0592	0.0182	-0.0073	-0.0462	0.0165	0.9585
13.7243	0.49114	-1.1624	-0.20699	0.41208	0.30283	-0.5187	-43.493	760.9728	-59.4331	294.3494	68.6974	683.0155	-0.0592	0.0182	-0.0073	-0.0462	0.0165	0.9585
13.7375	0.75056	-0.3596	-0.14562	0.13794	0.3508	0.078422	-39.8576	748.3263	-57.0996	289.4296	64.8053	667.9037	-0.0592	0.0182	-0.0073	-0.0462	0.0165	0.9585
13.7507	0.8679	0.3135	-0.089406	-0.093935	0.35107	0.58832	-36.0854	738.3605	-54.7624	285.6311	60.8922	654.8829	-0.0592	0.0182	-0.0073	-0.0462	0.0165	0.9585
13.7639	0.8898	0.82619	-0.043781	-0.27439	0.32795	0.9783	-32.3283	731.7366	-52.5498	283.1996	57.1278	644.5268	-0.0592	0.0182	-0.0073	-0.0462	0.0165	0.9585
13.7771	0.85731	1.1902	-0.010963	-0.40608	0.29709	1.2501	-28.7073	728.7645	-50.5473	282.2448	53.6277	637.0925	-0.0592	0.0182	-0.0073	-0.0462	0.0165	0.9585
13.7904	0.78424	1.4288	0.011745	-0.49366	0.25919	1.4294	-25.3213	729.4284	-48.8165	282.7485	50.4752	632.5635	-0.0592	0.0182	-0.0073	-0.0462	0.0165	0.9585
13.8036	0.69	1.5489	0.034285	-0.54024	0.20596	1.5049	-22.2278	733.3707	-47.3829	284.5629	47.7056	630.6285	-0.0592	0.0182	-0.0073	-0.0462	0.0165	0.9585
13.8168	0.56499	1.5546	0.063648	-0.54881	0.12857	1.489	-19.4246	739.9259	-46.2537	287.4204	45.3131	630.7143	-0.0592	0.0182	-0.0073	-0.0462	0.0165	0.9585
13.83	0.43103	1.4166	0.10954	-0.50893	0.026514	1.3439	-16.8506	748.2251	-45.4061	290.9764	43.2446	632.0864	-0.0592	0.0182	-0.0073	-0.0462	0.0165	0.9585
13.8432	0.28255	1.098	0.17725	-0.40421	-0.10338	1.0332	-14.4155	757.2859	-44.7897	294.8431	41.4215	633.9329	-0.0592	0.0182	-0.0073	-0.0462	0.0165	0.9585
13.8564	0.1299	0.53454	0.26721	-0.20913	-0.25689	0.49007	-12.0126	766.1167	-44.3246	298.6265	39.7375	635.4614	-0.0592	0.0182	-0.0073	-0.0462	0.0165	0.9585
13.8696	-0.0052356	-0.33985	0.37577	0.10315	-0.42214	-0.34936	-9.5477	773.8351	-43.9127	301.969	38.0749	636.0026	-0.0592	0.0182	-0.0073	-0.0462	0.0165	0.9585
13.8829	-0.10044	-1.5659	0.48887	0.55156	-0.57165	-1.5218	-6.967	779.7719	-43.455	304.5893	36.3313	635.0968	-0.0592	0.0182	-0.0073	-0.0462	0.0165	0.9585
13.8961	-0.096999	-3.1365	0.59018	1.1354	-0.66689	-3.0341	-4.2774	783.5291	-42.8956	306.3042	34.462	632.5397	-0.0592	0.0182	-0.0073	-0.0462	0.0165	0.9585
13.9093	0.053266	-4.9562	0.64327	1.8183	-0.65347	-4.7872	-1.5377	784.9755	-42.249	307.0257	32.4975	628.3604	-0.0592	0.0182	-0.0073	-0.0462	0.0165	0.9585
13.9225	0.45502	-6.7892	0.60248	2.5076	-0.45382	-6.5649	1.1799	784.1716	-41.6083	306.7364	30.5374	622.7283	-0.0592	0.0182	-0.0073	-0.0462	0.0165	0.9585
13.9357	1.2037	-8.174	0.40673	3.0255	0.025661	-7.914	3.833	781.297	-41.1152	305.4711	28.712	615.87	-0.0592	0.0182	-0.0073	-0.0462	0.0165	0.9585
13.9489	2.4046	-8.3791	-0.015253	3.089	0.89098	-8.1346	6.4676	776.6463	-40.9047	303.323	27.1141	608.0309	-0.0592	0.0182	-0.0073	-0.0462	0.0165	0.9585
13.9621	4.1283	-6.3488	-0.74904	2.2918	2.2536	-6.2124	9.1793	770.5772	-41.062	300.4287	25.7757	599.4495	-0.0592	0.0182	-0.0073	-0.0462	0.0165	0.9585
13.9754	6.3636	-0.68553	-1.8689	0.098757	4.1799	-0.79454	12.0871	763.3814	-41.6064	296.9214	24.6749	590.2737	-0.0592	0.0182	-0.0073	-0.0462	0.0165	0.9585
13.9886	8.9733	10.2452	-3.4186	-4.1211	6.6527	9.6879	15.2687	755.1988	-42.48	292.8947	23.7462	580.5281	-0.0592	0.0182	-0.0073	-0.0462	0.0165	0.9585
14.0018	11.5857	28.1113	-5.3594	-11.0073	9.4859	26.8568	18.7047	745.9445	-43.556	288.3689	22.9071	570.0968	-0.0592	0.0182	-0.0073	-0.0462	0.0165	0.9585
14.015	13.5456	54.1852	-7.5234	-21.0459	12.2542	51.9617	22.2736	735.242	-44.6543	283.26	22.0737	558.6755	-0.0592	0.0182	-0.0073	-0.0462	0.0165	0.9585
14.0282	13.8125	88.7275	-9.5341	-34.3263	14.1891	85.3025	25.7527	722.3768	-45.5529	277.3551	21.166	545.755	-0.0592	0.0182	-0.0073	-0.0462	0.0165	0.9585
14.0414	11.2271	130.3324	-10.8126	-50.2893	14.2861	125.57	28.8868	706.2901	-45.9977	270.3067	20.1011	530.6043	-0.0592	0.0182	-0.0073	-0.0462	0.0165	0.9585
14.0546	5.5012	175.6884	-10.5979	-67.6228	11.7014	169.5814	31.4388	685.7398	-45.7288	261.6863	18.7909	512.3761	-0.0592	0.0182	-0.0073	-0.0462	0.0165	0.9585
14.0679	-1.8486	219.9158	-8.0255	-84.4101	6.1832	212.5166	33.2458	659.5528	-44.571	251.0779	17.1884	490.2745	-0.0592	0.0182	-0.0073	-0.0462	0.0165	0.9585
14.0811	-8.8274	258.7654	-3.0736	-99.0314	-1.4696	249.9682	34.2509	626.9481	-42.482	238.1954	15.3046	463.7809	-0.0592	0.0182	-0.0073	-0.0462	0.0165	0.9585
14.0943	-14.3398	291.3172	3.2264	-111.1788	-9.7729	280.7899	34.4978	587.7981	-39.5693	222.9786	13.2094	432.8616	-0.0592	0.0182	-0.0073	-0.0462	0.0165	0.9585
14.1075	-18.013	319.4657	9.9419	-121.632	-17.6524	306.7072	34.1177	542.5996	-36.0411	205.5957	11.0023	397.9105	-0.0592	0.0182	-0.0073	-0.0462	0.0165	0.9585
